<svg width="181" height="170" viewBox="0 0 181 170" fill="none" xmlns="http://www.w3.org/2000/svg">
<path d="M36.2335 137.193C36.2705 140.984 34.0282 142.329 31.2464 142.356C31.1818 142.357 31.1175 142.356 31.0535 142.356C30.9246 142.354 30.7969 142.349 30.6706 142.342C28.1583 142.189 26.194 140.816 26.1596 137.292C26.124 133.644 30.7453 128.995 31.0919 128.651L31.0925 128.651C31.1057 128.638 31.1125 128.631 31.1125 128.631C31.1125 128.631 36.1965 133.404 36.2335 137.193Z" fill="#CB5621"/>
<path d="M115.754 136.981C115.791 140.771 113.549 142.116 110.767 142.143C110.702 142.144 110.638 142.144 110.574 142.143C110.445 142.141 110.318 142.137 110.191 142.129C107.679 141.976 105.715 140.604 105.68 137.079C105.645 133.431 110.266 128.782 110.613 128.438L110.613 128.438C110.626 128.425 110.633 128.418 110.633 128.418C110.633 128.418 115.717 133.191 115.754 136.981Z" fill="#CB5621"/>
<path d="M181 141.87H0V142.296H181V141.87Z" fill="#3F3D56"/>
<path d="M36.8822 70.7152C56.4275 70.7152 72.2721 54.8851 72.2721 35.3576C72.2721 15.8301 56.4275 0 36.8822 0C17.3369 0 1.49234 15.8301 1.49234 35.3576C1.49234 54.8851 17.3369 70.7152 36.8822 70.7152Z" fill="#CB5621"/>
<path d="M79.947 110.333H79.947C88.4283 110.333 96.5623 113.699 102.559 119.691C108.557 125.682 111.926 133.809 111.926 142.282V142.282H61.8257V128.438C61.8257 123.636 63.7349 119.031 67.1333 115.636C70.5317 112.24 75.1409 110.333 79.947 110.333Z" fill="#3F3D56"/>
<path d="M149.426 68.1719C149.426 68.1719 150.885 87.1195 148.843 87.7025C146.8 88.2855 139.506 92.658 127.835 91.492C127.835 91.492 116.456 97.6136 118.207 91.7835C119.958 85.9535 127.835 87.411 127.835 87.411C127.835 87.411 141.84 84.496 142.424 82.4555C143.007 80.415 140.673 71.9614 141.548 71.6699C142.424 71.3784 149.426 68.1719 149.426 68.1719Z" fill="#A0616A"/>
<path d="M131.95 101.207C131.95 101.207 133.087 128.581 134.838 132.662C136.296 136.061 137.147 147.146 137.39 150.755C137.439 151.478 137.464 151.901 137.464 151.901C137.464 151.901 142.132 151.901 142.424 150.735C142.716 149.569 143.591 136.743 142.424 132.662C141.257 128.581 143.912 100.333 143.912 100.333L131.95 101.207Z" fill="#2F2E41"/>
<path d="M138.631 150.443C138.631 150.443 135.713 151.318 135.13 152.484C134.546 153.65 124.918 155.69 127.835 157.148C130.753 158.605 139.506 155.982 139.506 155.982C139.506 155.982 144.174 155.69 143.883 153.941C143.591 152.192 142.528 150.037 142.528 150.037L138.631 150.443Z" fill="#2F2E41"/>
<path d="M146.8 153.582C146.8 153.582 143.883 154.456 143.299 155.622C142.716 156.788 133.087 158.829 136.005 160.286C138.923 161.744 147.676 159.12 147.676 159.12C147.676 159.12 152.344 158.829 152.052 157.08C151.76 155.331 150.698 153.176 150.698 153.176L146.8 153.582Z" fill="#2F2E41"/>
<path d="M134.546 100.529L138.631 107.525L145.448 131.849C145.448 131.849 144.758 154.165 145.633 154.165C146.509 154.165 151.177 155.622 151.469 154.165C151.715 152.934 154.983 141.14 153.354 133.29C152.295 128.329 151.613 123.294 151.315 118.23L150.593 104.61C150.593 104.61 153.511 99.3626 150.302 98.4881C147.092 97.6136 134.546 100.529 134.546 100.529Z" fill="#2F2E41"/>
<path d="M138.339 55.6373C142.206 55.6373 145.341 52.5051 145.341 48.6413C145.341 44.7775 142.206 41.6453 138.339 41.6453C134.472 41.6453 131.337 44.7775 131.337 48.6413C131.337 52.5051 134.472 55.6373 138.339 55.6373Z" fill="#A0616A"/>
<path d="M137.464 53.3052C137.464 53.3052 138.631 62.6332 138.339 63.2162C138.047 63.7992 145.341 56.8032 145.341 56.8032C145.341 56.8032 142.716 52.7222 143.299 50.6816L137.464 53.3052Z" fill="#A0616A"/>
<path d="M153.803 62.6332C153.803 62.6332 145.633 56.8032 145.341 55.6372L139.214 60.8842L138.173 59.6461C138.173 59.6461 133.379 64.3823 133.379 66.4228C133.379 68.4633 133.087 74.5848 133.963 76.3338C134.838 78.0828 131.337 100.237 131.337 100.237C131.337 100.237 134.254 102.86 134.546 103.152C134.838 103.443 146.509 101.403 146.509 101.403C146.509 101.403 152.344 100.82 152.344 99.9455C152.344 99.071 150.593 85.9534 151.177 82.4554C151.76 78.9573 153.803 62.6332 153.803 62.6332Z" fill="#575A89"/>
<path d="M155.553 70.7954C155.553 70.7954 157.012 89.743 154.97 90.326C152.927 90.909 145.633 95.2816 133.963 94.1156C133.963 94.1156 122.584 100.237 124.334 94.4071C126.085 88.577 133.963 90.0345 133.963 90.0345C133.963 90.0345 147.967 87.1195 148.551 85.079C149.134 83.0385 146.8 74.5849 147.676 74.2934C148.551 74.0019 155.553 70.7954 155.553 70.7954Z" fill="#A0616A"/>
<path d="M135.348 45.1463C136.305 44.8059 137.361 44.6311 138.337 44.9133C139.718 45.3126 140.675 46.5223 141.707 47.5229C142.739 48.5235 144.186 49.4102 145.544 48.9396C145.462 48.3513 145.617 47.7545 145.974 47.2796C146.151 47.1025 146.282 46.8846 146.356 46.645C146.414 46.2703 146.098 45.9471 146.004 45.5799C145.838 44.9364 146.292 44.0555 145.734 43.6949C145.586 43.5997 145.4 43.578 145.256 43.4775C144.691 43.0831 145.318 42.1024 144.945 41.5239C144.833 41.3745 144.688 41.2534 144.52 41.1702C141.813 39.5919 138.502 39.5876 135.368 39.6274C134.931 39.6329 134.324 39.8494 134.447 40.2677C133.855 39.8429 133.079 40.4394 132.601 40.99L131.624 42.1169C131.165 42.607 130.764 43.1486 130.43 43.7309C130.131 44.3013 130.065 45.1781 130.66 45.4268C130.218 45.2419 129.682 47.8559 131.718 47.4258C132.901 47.176 134.061 45.6039 135.348 45.1463Z" fill="#2F2E41"/>
<path d="M149.134 63.2163L153.803 62.6333C153.803 62.6333 158.471 71.6699 155.845 73.1274C153.219 74.5849 146.509 75.7509 146.509 75.1679C146.509 74.5849 149.134 63.2163 149.134 63.2163Z" fill="#575A89"/>
<path d="M85.1541 65.1991C85.1541 65.1991 86.5467 69.7706 85.7509 71.1619C84.9552 72.5533 87.1435 75.5347 90.7245 74.1434C94.3055 72.752 94.5044 71.1619 94.5044 71.1619C94.5044 71.1619 93.1118 68.9756 92.7139 64.4041L85.1541 65.1991Z" fill="#FFB9B9"/>
<path d="M66.9508 110.02C66.9508 110.02 59.7889 113.597 62.972 118.368C64.8222 121.141 68.3528 126.532 70.9852 130.562C73.1883 133.934 74.8779 137.614 75.9987 141.482L76.5001 143.213L78.4895 145.598L82.6673 140.828C82.6673 140.828 76.5001 129.498 76.5001 127.312C76.5001 125.126 71.5265 118.169 71.5265 118.169L76.5001 114.989C76.5001 114.989 70.9297 108.628 66.9508 110.02Z" fill="#FFB9B9"/>
<path d="M90.2271 122.343C90.2271 122.343 90.4261 127.908 90.625 130.095C90.7892 131.899 89.193 136.949 89.7464 142.568C90.0842 146.203 90.0438 149.863 89.6259 153.49L88.8345 160.704L94.8028 161.3L96.7922 145.002C96.7922 145.002 97.9859 133.474 97.3891 129.697L97.588 121.747C97.588 121.747 93.2113 120.157 90.2271 122.343Z" fill="#FFB9B9"/>
<path d="M79.5837 99.1873C79.5837 99.1873 65.6577 108.132 65.4588 110.914C65.4588 110.914 73.4165 110.119 73.6154 117.076C73.6154 117.076 78.3901 115.287 79.5837 114.889C80.7774 114.492 87.1435 110.318 87.1435 110.318C87.1435 110.318 89.7298 112.306 89.7298 115.486C89.7298 118.666 89.5308 124.231 89.7298 124.629C89.9287 125.026 94.5044 119.262 98.2843 124.231L100.871 110.517C100.871 110.517 101.666 102.169 100.075 101.572L88.934 97.3984L79.5837 99.1873Z" fill="#2F2E41"/>
<path d="M88.0388 67.6837C91.335 67.6837 94.0071 65.0141 94.0071 61.7209C94.0071 58.4277 91.335 55.7581 88.0388 55.7581C84.7426 55.7581 82.0705 58.4277 82.0705 61.7209C82.0705 65.0141 84.7426 67.6837 88.0388 67.6837Z" fill="#FFB9B9"/>
<path d="M86.5467 72.1559C86.5467 72.1559 93.2786 73.9323 94.1899 70.5596C94.1899 70.5596 102.462 72.1559 103.855 77.5225C105.247 82.889 100.473 95.8085 100.473 96.206C100.473 96.6035 104.452 98.9887 102.661 100.181C100.871 101.374 99.279 99.9825 100.075 101.573C100.871 103.163 102.263 103.56 101.07 103.958C99.8758 104.355 92.7139 98.1936 87.1435 99.7837C81.5731 101.374 78.7879 100.181 78.7879 100.181L76.2902 78.6133C76.1927 77.787 76.3038 76.9495 76.6135 76.1771C76.9232 75.4048 77.4216 74.7222 78.0631 74.1918C79.3099 73.1665 80.9641 72.0588 82.5678 71.7584C85.7509 71.1621 85.8832 70.8357 85.8832 70.8357L86.5467 72.1559Z" fill="#D0CDE1"/>
<path d="M80.1805 106.939C80.1805 106.939 81.971 117.076 84.3583 115.685C86.7456 114.293 83.7615 106.939 83.7615 106.939H80.1805Z" fill="#FFB9B9"/>
<path d="M88.4913 108.251C88.4913 108.251 85.389 118.067 88.1497 117.935C90.9103 117.804 91.6667 109.905 91.6667 109.905L88.4913 108.251Z" fill="#FFB9B9"/>
<path d="M77.4948 142.816C77.4948 142.816 76.1022 141.225 75.3064 143.412C74.5107 145.598 72.3223 148.381 72.3223 148.381C72.3223 148.381 67.5477 153.747 70.9297 153.946C74.3117 154.145 79.0864 149.176 79.0864 149.176L84.6568 144.008C84.6568 144.008 82.8105 139.516 81.9432 139.476C81.0758 139.437 81.2747 144.803 77.4948 142.816Z" fill="#2F2E41"/>
<path d="M90.4261 159.313C90.4261 159.313 89.0241 159.722 89.1283 158.026C89.1283 158.026 84.0599 160.704 85.4525 162.692C86.8451 164.679 88.4367 166.667 88.4367 166.667C88.4367 166.667 95.7975 170.841 96.3944 169.847C96.9912 168.853 96.9912 166.866 96.5933 166.07C96.1954 165.275 94.206 163.884 94.8028 162.692C95.3997 161.499 94.6039 158.319 93.6092 158.319C92.6145 158.319 90.4261 159.313 90.4261 159.313Z" fill="#2F2E41"/>
<path d="M82.8303 56.6683C82.8303 56.6683 84.7503 52.5122 88.4302 53.4713C92.11 54.4304 94.19 55.8691 94.35 57.3077C94.51 58.7463 94.27 60.9043 94.27 60.9043C94.27 60.9043 93.87 57.9471 91.3101 58.5865C88.7502 59.2259 84.7503 58.7463 84.7503 58.7463L84.1103 64.5009C84.1103 64.5009 83.3903 63.4619 82.5903 64.1013C81.7904 64.7407 80.2704 57.9471 82.8303 56.6683Z" fill="#2F2E41"/>
<path d="M100.473 77.3237C100.473 77.3237 95.6981 90.2432 96.096 91.8333C96.4939 93.4234 96.096 93.6221 95.4991 94.0197C94.9023 94.4172 93.3108 98.5912 93.3108 98.5912C93.3108 98.5912 92.3161 100.976 91.5203 101.573C90.7245 102.169 90.7245 103.759 90.7245 103.759C90.7245 103.759 88.7351 105.747 89.133 106.144C89.5309 106.542 89.5308 107.138 88.7351 107.734C87.9393 108.33 87.1435 109.126 87.5414 109.324C87.9393 109.523 90.7245 111.709 91.5203 111.511C92.316 111.312 91.1224 110.517 92.1171 110.119C93.1118 109.722 93.7086 109.126 93.3108 108.927C92.9129 108.728 91.7192 108.728 92.9129 108.33C94.1065 107.933 98.2843 105.349 99.6769 102.169C101.07 98.9887 107.742 79.7479 103.709 77.0451C103.709 77.0451 102.064 74.9386 100.473 77.3237Z" fill="#D0CDE1"/>
<path d="M78.3901 75.1372L78.3093 75.1708C77.5578 75.4839 76.894 75.9753 76.3754 76.6024C75.8568 77.2295 75.499 77.9734 75.333 78.7698C74.8986 80.8472 74.4711 83.8519 74.8091 86.6654C75.4059 91.6344 75.8038 93.8208 76.5996 95.4109C77.3953 97.001 77.5943 96.4047 77.3953 97.5972C77.1964 98.7898 76.2017 97.796 77.1964 99.3861C78.1911 100.976 78.7879 100.579 78.39 101.374C77.9922 102.169 77.3953 102.169 78.1911 103.163C78.9869 104.156 78.9869 104.554 79.1858 104.951C79.3848 105.349 79.9816 108.33 79.9816 108.33C79.9816 108.33 83.1647 107.337 84.9552 107.734C84.9552 107.734 83.3636 104.951 83.7615 104.355C84.1594 103.759 84.7562 103.56 84.1594 102.964C83.5626 102.368 82.5678 102.566 83.5626 101.97C84.5573 101.374 82.7668 95.2121 82.7668 95.2121L78.3901 75.1372Z" fill="#D0CDE1"/>
<path d="M40.2933 141.856H33.0448L36.3492 30.0327L40.2933 141.856Z" fill="#3F3D56"/>
<path d="M36.9888 51.2259L44.7703 40.4695L36.8822 53.8883L36.0294 52.3973L36.9888 51.2259Z" fill="#3F3D56"/>
<path d="M36.136 62.0889L28.3545 51.3325L36.2426 64.7514L37.0954 63.2604L36.136 62.0889Z" fill="#3F3D56"/>
<path d="M40.1285 83.6909L36.6206 85.7144L37.6865 87.559L41.1945 85.5355L40.1285 83.6909Z" fill="#3F3D56"/>
</svg>
